<svg viewBox="0 0 24 24" xmlns="http://www.w3.org/2000/svg"><path d="M11.9997 14.6615C11.8791 14.6615 11.767 14.6423 11.6631 14.6038C11.5593 14.5654 11.4606 14.4993 11.367 14.4057L6.87276 9.91152C6.73429 9.77307 6.66346 9.59904 6.66026 9.38942C6.65704 9.1798 6.72788 9.00256 6.87276 8.8577C7.01763 8.71283 7.19326 8.6404 7.39966 8.6404C7.60606 8.6404 7.78169 8.71283 7.92656 8.8577L11.9997 12.9308L16.0728 8.8577C16.2112 8.71925 16.3852 8.64841 16.5949 8.6452C16.8045 8.642 16.9817 8.71283 17.1266 8.8577C17.2714 9.00256 17.3439 9.1782 17.3439 9.38462C17.3439 9.59102 17.2714 9.76665 17.1266 9.91152L12.6323 14.4057C12.5388 14.4993 12.44 14.5654 12.3362 14.6038C12.2324 14.6423 12.1202 14.6615 11.9997 14.6615Z" /></svg>
