<svg viewBox="0 0 24 24" xmlns="http://www.w3.org/2000/svg"><path d="M12 17.1L15.4404 12.1346C15.4725 12.0833 15.4757 12.0304 15.4501 11.9759C15.4244 11.9214 15.3795 11.8942 15.3154 11.8942H12.5135L14.2635 5.8173C14.2891 5.74038 14.2763 5.66827 14.225 5.60095C14.1737 5.53363 14.1096 5.49998 14.0327 5.49998H9.50006C9.41031 5.49998 9.33659 5.52882 9.27891 5.58652C9.22121 5.64423 9.19236 5.71795 9.19236 5.8077V13.1923C9.19236 13.282 9.22121 13.3557 9.27891 13.4134C9.33659 13.4711 9.41031 13.5 9.50006 13.5H12V17.1ZM16.9904 12.5134L11.7404 20.1307C11.6468 20.2678 11.5305 20.3582 11.3914 20.4018C11.2523 20.4454 11.1142 20.4454 10.977 20.4018C10.8398 20.3582 10.726 20.2787 10.6356 20.1633C10.5452 20.0479 10.5001 19.9082 10.5001 19.7441V15H9.50006C9.00136 15 8.5754 14.8233 8.22218 14.4701C7.86898 14.1169 7.69238 13.691 7.69238 13.1923V5.8077C7.69238 5.30898 7.86898 4.88302 8.22218 4.52982C8.5754 4.17661 9.00136 4 9.50006 4H14.3404C14.8352 4 15.2372 4.1875 15.5461 4.5625C15.8551 4.9375 15.9461 5.35257 15.8192 5.8077L14.5 10.3942H15.8654C16.4077 10.3942 16.8087 10.6336 17.0683 11.1125C17.3279 11.5913 17.3019 12.0583 16.9904 12.5134Z" /></svg>
