<?xml version="1.0" standalone="no"?>
<!DOCTYPE svg PUBLIC "-//W3C//DTD SVG 20010904//EN"
 "http://www.w3.org/TR/2001/REC-SVG-20010904/DTD/svg10.dtd">
<svg version="1.0" xmlns="http://www.w3.org/2000/svg"
 width="704.000000pt" height="704.000000pt" viewBox="0 0 704.000000 704.000000"
 preserveAspectRatio="xMidYMid meet">
<g transform="translate(0.000000,704.000000) scale(0.100000,-0.100000)"
fill="#000000" stroke="none">
<path d="M2943 7031 c-45 -3 -84 -9 -87 -12 -4 -3 -18 -51 -33 -105 -36 -137
-38 -321 -5 -439 33 -115 92 -228 166 -316 l64 -77 -46 -7 c-26 -4 -100 -20
-165 -37 -66 -16 -120 -28 -122 -26 -1 2 -40 127 -85 278 -45 151 -86 278 -90
283 -12 13 -264 -81 -465 -173 -107 -50 -303 -162 -429 -246 -182 -121 -319
-235 -506 -423 -287 -289 -471 -546 -645 -902 -159 -328 -261 -665 -310 -1034
-23 -168 -30 -516 -16 -700 54 -669 304 -1299 730 -1835 100 -127 391 -416
521 -519 474 -376 1012 -609 1615 -701 176 -27 591 -38 782 -21 1481 134 2702
1229 2993 2681 128 638 69 1301 -167 1895 -341 857 -1009 1536 -1849 1879 -88
35 -286 106 -298 106 -2 0 -40 -123 -86 -274 -46 -151 -86 -280 -90 -286 -6
-9 -21 -8 -61 3 -29 9 -55 14 -57 12 -2 -2 1 -12 7 -23 6 -12 11 -25 11 -30 0
-6 -50 -8 -127 -5 -133 6 -243 -8 -243 -30 1 -7 20 -148 43 -313 24 -166 41
-306 39 -313 -5 -16 -127 -15 -139 2 -8 9 -123 754 -123 791 0 16 277 -18 438
-53 l82 -18 -23 41 c-13 23 -59 104 -103 180 l-78 139 -26 -34 c-50 -68 -166
-175 -230 -211 l-65 -38 -137 0 c-125 0 -138 -2 -138 -17 0 -10 29 -189 64
-398 35 -209 61 -383 58 -387 -9 -9 -181 -32 -188 -25 -3 3 -41 162 -85 354
-77 339 -80 349 -111 373 -17 14 -41 32 -52 42 -12 9 -18 19 -15 22 3 4 78 14
165 24 l159 17 -50 29 c-130 76 -245 241 -281 402 -22 101 -15 297 14 399 11
38 18 73 16 77 -3 4 -17 7 -32 6 -15 -1 -64 -4 -109 -7z m25 -1510 c34 -115
62 -215 62 -223 0 -12 -20 -17 -82 -22 -176 -15 -497 -62 -862 -126 -121 -22
-223 -37 -228 -34 -14 9 12 46 86 122 125 130 293 241 520 343 117 53 387 148
421 149 18 0 28 -26 83 -209z m1295 200 c21 -8 29 -30 71 -195 26 -103 45
-193 42 -201 -7 -20 -149 -21 -163 -2 -6 6 -20 84 -32 172 -12 88 -25 177 -28
198 l-6 37 46 0 c25 0 56 -4 70 -9z m158 -687 c4 -2 21 -32 39 -66 42 -82 130
-217 192 -296 27 -35 48 -65 46 -68 -3 -2 -57 -7 -121 -10 -69 -4 -125 -12
-135 -20 -23 -17 -24 -146 0 -189 36 -65 53 -75 118 -68 l60 6 -15 -43 c-31
-89 -24 -110 109 -312 102 -155 115 -193 72 -204 -14 -3 -84 -1 -157 5 -160
12 -179 6 -245 -78 -49 -62 -119 -189 -110 -199 4 -3 22 2 41 11 69 33 183 48
340 45 l150 -3 3 -71 3 -71 -68 -6 c-37 -4 -110 -7 -161 -7 -51 0 -102 -4
-112 -10 -35 -19 -119 -158 -145 -241 -14 -44 -25 -89 -25 -100 0 -11 -7 -22
-15 -25 -24 -10 -202 93 -340 196 -278 208 -380 341 -488 640 -118 327 -207
784 -207 1069 0 67 3 80 18 85 31 10 283 28 497 36 191 7 641 3 656 -6z
m-1461 -101 c0 -136 20 -403 41 -558 104 -772 458 -1513 1100 -2305 227 -281
561 -645 803 -875 l138 -133 -83 -51 c-96 -59 -350 -187 -392 -197 -26 -6 -37
2 -129 97 -328 339 -585 657 -824 1019 -476 721 -753 1435 -839 2160 -30 259
-30 670 2 872 6 42 12 44 121 47 l62 1 0 -77z m-527 30 c2 -5 -2 -66 -9 -138
-17 -162 -19 -610 -4 -770 56 -606 222 -1174 519 -1765 251 -501 612 -1033
1039 -1530 55 -64 77 -97 69 -102 -34 -19 -242 -40 -438 -45 l-216 -6 -65 84
c-36 46 -104 143 -151 214 -436 665 -790 1579 -931 2405 -52 306 -61 413 -60
765 0 357 12 477 69 712 38 159 45 171 97 176 24 2 51 4 60 5 9 1 19 -1 21 -5z
m-468 -92 c3 -5 -1 -51 -10 -103 -124 -782 -68 -1581 159 -2233 31 -88 56
-166 56 -172 0 -68 -168 173 -263 377 -161 346 -230 682 -230 1115 0 310 25
509 103 810 54 210 51 203 102 208 24 2 51 4 60 5 9 1 19 -2 23 -7z m2849
-1628 c64 -214 125 -437 121 -443 -7 -12 -234 -35 -244 -24 -10 10 -101 417
-101 451 0 20 6 22 68 26 155 8 150 8 156 -10z"/>
<path d="M3935 4591 c-46 -12 -85 -35 -139 -82 -50 -45 -136 -153 -136 -172 0
-7 69 -8 220 -3 121 3 220 3 220 0 0 -4 -11 -36 -25 -71 -25 -62 -45 -193 -30
-193 24 0 140 67 182 104 93 84 136 212 117 352 l-9 69 -185 2 c-102 0 -198
-2 -215 -6z"/>
<path d="M3405 6846 c-95 -44 -165 -153 -165 -256 0 -103 70 -212 165 -256 70
-33 170 -33 240 0 95 44 165 153 165 256 0 103 -70 212 -165 256 -37 18 -68
24 -120 24 -52 0 -83 -6 -120 -24z"/>
</g>
</svg>
